<?xml version="1.0" encoding="utf-8"?>
<!-- Generator: Adobe Illustrator 24.3.0, SVG Export Plug-In . SVG Version: 6.00 Build 0)  -->
<svg version="1.1" id="Layer_1" xmlns="http://www.w3.org/2000/svg" xmlns:xlink="http://www.w3.org/1999/xlink" x="0px" y="0px"
	 viewBox="0 0 868.7 457.5" style="enable-background:new 0 0 868.7 457.5;" xml:space="preserve">
<style type="text/css">
	.st0{fill:#57D099;}
	.st1{fill:#009966;}
	.st2{fill:#CFFBE3;}
	.st3{fill:#FFFFFF;}
	.st4{fill:none;stroke:#000000;stroke-width:3;stroke-miterlimit:10;}
	.st5{fill:#CEA525;stroke:#614901;stroke-width:3;stroke-miterlimit:10;}
</style>
<polygon class="st0" points="200.3,310.7 199.9,159.3 329.1,80.4 458.7,152.9 459.1,304.3 329.9,383.2 "/>
<polygon class="st1" points="329.8,232 329.5,80.6 458.7,1.6 588.2,74.1 588.6,225.5 459.4,304.5 "/>
<polygon class="st2" points="329.9,383.3 329.6,231.9 458.8,152.9 588.4,225.4 588.7,376.8 459.5,455.8 "/>
<polygon class="st0" points="458.2,303.8 329.2,231.7 329.3,382.9 "/>
<polygon class="st3" points="329.2,231.7 458.2,303.8 458.1,152.6 "/>
<polygon class="st4" points="459.3,455.7 588.3,376.7 588.3,73.7 459.3,1.7 200.3,159.7 200.3,310.7 "/>
<path class="st5" d="M329.9,383.2"/>
</svg>
